<svg width="18" height="18" viewBox="0 0 18 18" fill="none" xmlns="http://www.w3.org/2000/svg">
<g id="IMAGE">
<g id="facebook-icon">
<mask id="mask0_177_1611" style="mask-type:alpha" maskUnits="userSpaceOnUse" x="2" y="2" width="14" height="14">
<g id="mask-2">
<path id="Vector" d="M10.6948 15.5V10.5964H12.3577L12.6059 8.73208H10.6948V7.52469C10.6948 6.97426 10.8442 6.60139 11.6429 6.60139H12.6875V4.88352C12.5111 4.86133 11.894 4.8125 11.191 4.8125C9.72253 4.8125 8.73019 5.70473 8.73019 7.32494V8.73208H7.0625V10.5964H8.72979L8.72655 15.5H3.125C2.50977 15.5 2 14.9902 2 14.375V3.125C2 2.50977 2.50977 2 3.125 2H14.375C14.9902 2 15.5 2.50977 15.5 3.125V14.375C15.5 14.9902 14.9902 15.5 14.375 15.5H10.6948Z" fill="white"/>
</g>
</mask>
<g mask="url(#mask0_177_1611)">
<path id="icon" d="M10.6948 15.5V10.5964H12.3577L12.6059 8.73208H10.6948V7.52469C10.6948 6.97426 10.8442 6.60139 11.6429 6.60139H12.6875V4.88352C12.5111 4.86133 11.894 4.8125 11.191 4.8125C9.72253 4.8125 8.73019 5.70473 8.73019 7.32494V8.73208H7.0625V10.5964H8.72979L8.72655 15.5H3.125C2.50977 15.5 2 14.9902 2 14.375V3.125C2 2.50977 2.50977 2 3.125 2H14.375C14.9902 2 15.5 2.50977 15.5 3.125V14.375C15.5 14.9902 14.9902 15.5 14.375 15.5H10.6948Z" fill="white"/>
</g>
</g>
</g>
</svg>
